<svg xmlns="http://www.w3.org/2000/svg" xml:space="preserve" id="Sickwomandrinkingteaduringquarantine" x="0" y="0" enable-background="new 0 0 300 300" version="1.1" viewBox="0 0 300 300">
  <path fill="#94f72d" d="M274.3,232.3H25c0,0,31.2-36.6,0-87.9s43.4-71.8,76.6-36.6s69.8-34.1,126.7-13.4   C305.5,122.5,274.3,232.3,274.3,232.3z" class="colorfdc97e svgShape"></path>
  <g opacity=".9" fill="#000000" class="color000000 svgShape">
    <rect width="14.2" height="21.5" x="63.1" y="101" fill="none" stroke="#ffffff" stroke-linecap="round" stroke-linejoin="round" stroke-miterlimit="10" stroke-width=".323" class="colorStrokeffffff svgStroke"></rect>
    <rect width="11.2" height="18.3" x="64.5" y="102.6" fill="#ffffff" class="colorffffff svgShape"></rect>
  </g>
  <path fill="none" d="M228.3 184.1h.2v-.2C228.5 184 228.4 184.1 228.3 184.1zM228.5 180.9v-.2h-.2C228.4 180.7 228.5 180.8 228.5 180.9z"></path>
  <polygon fill="#4d54f4" points="228.3 184.1 84.7 184.1 84.7 226.5 228.5 226.5 228.5 184.1" class="color6a89c5 svgShape"></polygon>
  <path fill="#585ba1" d="M228.3,174H84.7v25.4h143.6c0.1,0,0.2-0.6,0.2-1.3v-22.8C228.5,174.6,228.4,174,228.3,174z" class="color586ea1 svgShape"></path>
  <path fill="#4d54f4" d="M84.7 169.3v11.4h143.6.2v-10.3V168v-2.7-25.1c0-6.6-5.3-11.9-11.9-11.9H96.5c-6.6 0-11.9 5.3-11.9 11.9V164v2.8V169.3zM250.6 172.8H229c-.3 0-.5-.2-.5-.5v10 .2 2.9.2 41.1 4.2c0 .8.7 1.4 1.5 1.4h5.6 8.6 5.6c.8 0 1.5-.6 1.5-1.4v-58.6C251.2 172.6 250.9 172.8 250.6 172.8z" class="color6a89c5 svgShape"></path>
  <path fill="#585ba1" d="M250.6,170.9H229c-0.3,0-0.5,0.2-0.5,0.5v2.7v2.5c0,0.3,0.2,0.5,0.5,0.5h21.7c0.3,0,0.5-0.2,0.5-0.5v-2.5     v-2.7C251.2,171.1,250.9,170.9,250.6,170.9z" class="color586ea1 svgShape"></path>
  <path fill="#4d54f4" d="M84.7,182.5v-11c0,0.3-0.2,0.5-0.5,0.5H62.5c-0.3,0-0.5-0.2-0.5-0.5v59.5c0,0.8,0.7,1.4,1.5,1.4h6.7h8.6     h4.5c0.8,0,1.5-0.6,1.5-1.4v-4.2v-41V182.5z" class="color6a89c5 svgShape"></path>
  <path fill="#ffffff" d="M225.6,178.9c0.1-0.5-0.3-0.8-0.8-0.7l0,0c-1.7,0.3-3.2,1.8-4,4l-3.7,9.4c-0.1,0.3-0.4,0.5-0.8,0.4l-15.1-3.4   c-0.4-0.1-0.8,0.2-0.8,0.6l-1.3,10.6c0,0.4,0.2,0.7,0.6,0.7l10.7,0.5c3.6,0.2,7.1,0.6,10.6,1.3l0.7,0.1c0.4,0.1,0.7-0.2,0.8-0.6   L225.6,178.9z" class="colorffffff svgShape"></path>
  <path fill="#585ba1" d="M62.4,166.8h19.5c0.3,0,0.5,0.2,0.5,0.5v2.5v2.2c0,0.3-0.2,0.5-0.5,0.5H62.4c-0.3,0-0.5-0.2-0.5-0.5v-2.2     v-2.5C62,167,62.2,166.8,62.4,166.8z" class="color586ea1 svgShape"></path>
  <circle cx="119.8" cy="155.7" r="1.9" fill="none" stroke="#ffffff" stroke-linecap="round" stroke-linejoin="round" stroke-miterlimit="10" stroke-width=".323" class="colorStrokeffffff svgStroke"></circle>
  <circle cx="144.8" cy="155.7" r="1.9" fill="none" stroke="#ffffff" stroke-linecap="round" stroke-linejoin="round" stroke-miterlimit="10" stroke-width=".323" class="colorStrokeffffff svgStroke"></circle>
  <circle cx="169.3" cy="155.7" r="1.9" fill="none" stroke="#ffffff" stroke-linecap="round" stroke-linejoin="round" stroke-miterlimit="10" stroke-width=".323" class="colorStrokeffffff svgStroke"></circle>
  <circle cx="193.3" cy="155.7" r="1.9" fill="none" stroke="#ffffff" stroke-linecap="round" stroke-linejoin="round" stroke-miterlimit="10" stroke-width=".323" class="colorStrokeffffff svgStroke"></circle>
  <g opacity=".9" fill="#000000" class="color000000 svgShape">
    <rect width="20.5" height="31" x="33.1" y="113" fill="none" stroke="#ffffff" stroke-linecap="round" stroke-linejoin="round" stroke-miterlimit="10" stroke-width=".323" class="colorStrokeffffff svgStroke"></rect>
    <rect width="16.2" height="26.4" x="35.2" y="115.3" fill="#ffffff" class="colorffffff svgShape"></rect>
  </g>
  <path fill="#8587bc" d="M104.6,196.1c1.7,1.3,4.1,0.4,4.6-1.6c1.4-6.6,2.5-20-6-34.5c-8.8-15.1-18.6-21.9-23.1-24.4    c-0.6-0.3-1.4,0.2-1.3,0.9c0.2,1.2-0.1,2.8-1.7,5c-3.7,5-8.5,24.6,5.5,41.3s16.5,9,20.9,12.5L104.6,196.1z" class="colora485bc svgShape"></path>
  <path fill="#bbbcdb" d="M78.1 145.4C78.1 145.5 78.1 145.5 78.1 145.4L78.1 145.4c0 0 .1 0 .1 0 .2-.1.8-.6 1.1-1.2.3-.5.4-1.2.4-1.5 0-.1-.1-.2-.2-.1-.3.2-.7.6-1 1.2C78 144.6 78 145.3 78.1 145.4zM88.1 143.6C88.1 143.6 88.1 143.6 88.1 143.6 88.1 143.6 88.1 143.6 88.1 143.6c0 0-.1.1 0 .2.1.3.5 1.3 1.1 2 .6.6 1.4 1 1.8 1.2.1.1.3-.1.2-.2-.1-.4-.4-1.2-1.1-1.9C89.2 143.9 88.3 143.7 88.1 143.6zM83.6 153.6 83.6 153.6C83.6 153.6 83.6 153.6 83.6 153.6 83.6 153.6 83.6 153.6 83.6 153.6c-.3-.2-1-.4-1.7-.4-.6.1-1.2.4-1.5.5-.1.1-.1.2 0 .2.3.1.9.3 1.6.2C83 154.1 83.5 153.7 83.6 153.6zM91 157.4C91 157.4 91 157.4 91 157.4 91 157.4 91 157.4 91 157.4c0 0 .1 0 .1 0 .2-.1.9-.4 1.4-.9.4-.4.7-1.1.8-1.4 0-.1-.1-.2-.2-.1-.3.1-.8.4-1.3.9C91.2 156.6 91.1 157.2 91 157.4zM81.3 165.6C81.3 165.6 81.3 165.6 81.3 165.6L81.3 165.6c0 0 0 .1 0 .1.2.2.8.7 1.4.9.6.2 1.2.2 1.6.1.1 0 .1-.1.1-.2-.2-.2-.7-.6-1.4-.8C82.1 165.4 81.5 165.5 81.3 165.6zM90.7 168.7C90.7 168.7 90.7 168.7 90.7 168.7 90.7 168.7 90.7 168.7 90.7 168.7c0 0 0 .1 0 .1.2.2.7.7 1.4 1 .6.2 1.2.2 1.6.2.1 0 .1-.1.1-.2-.2-.2-.7-.6-1.4-.9C91.5 168.5 90.9 168.6 90.7 168.7zM103.4 172.9C103.4 172.9 103.4 172.9 103.4 172.9L103.4 172.9C103.4 172.9 103.4 172.9 103.4 172.9c.2-.3.4-1 .4-1.7 0-.6-.3-1.2-.5-1.5 0-.1-.2-.1-.2 0-.1.3-.3.9-.2 1.6C102.9 172.3 103.3 172.8 103.4 172.9zM89.6 183.6C89.6 183.6 89.6 183.6 89.6 183.6L89.6 183.6c0 0 0 .1 0 .1.2.2.7.7 1.3 1 .6.2 1.2.2 1.6.2.1 0 .1-.1.1-.2-.2-.2-.6-.6-1.3-.9C90.4 183.4 89.8 183.5 89.6 183.6zM103.4 189.5C103.4 189.5 103.4 189.5 103.4 189.5 103.4 189.5 103.4 189.5 103.4 189.5c0 0 .1 0 .1 0 .2-.1.8-.6 1.1-1.2.3-.5.4-1.2.4-1.5 0-.1-.1-.2-.2-.1-.3.2-.7.6-1 1.2C103.4 188.7 103.4 189.3 103.4 189.5z" class="colorcfbbdb svgShape"></path>
  <path fill="#7c7eb7" d="M75.9,154.7c-0.2-1-1.7-1-1.7,0.1c-0.4,8,1.7,18,9.3,27.2c1.8,2.2,3.4,3.9,4.9,5.3c0.6,0.6,1.5-0.2,1-0.9     c0,0,0,0,0-0.1C81.4,175.4,77.5,164.2,75.9,154.7z" class="color9b7cb7 svgShape"></path>
  <g fill="#000000" class="color000000 svgShape">
    <path fill="#444674" d="M114.2,125.7c0.4,1.5-0.6,3.1-2.1,3.5c-3.3,0.8-6.5,1.8-9.8,2.6c-2.6,0.6-5.3,1.1-7.9,1.6c0,0,0,0,0,0         c-0.6,0.1-1.2-0.5-1-1.1c3.1-9.1,0.8-11.5,0.9-20.8c0.1-10.7,11-11.6,17.9-5.5c4.2,3.7,1.6,13.3,0.6,14L114.2,125.7z" class="color74444a svgShape"></path>
    <path fill="none" stroke="#444674" stroke-miterlimit="10" stroke-width=".323" d="M97.7,104.4c-1,0.1-2.7,2-3.4,5.5c-1.8,9.2,1.4,12.3-1.5,21.7" class="colorStroke74444a svgStroke"></path>
    <path fill="none" stroke="#54568c" stroke-linecap="round" stroke-linejoin="round" stroke-miterlimit="10" stroke-width=".646" d="M97.3,112.3c-0.1,8.9,2,11.5-0.5,19.5" class="colorStroke8c545b svgStroke"></path>
    <path fill="#cbf3a2" d="M102.8,117.2c-0.1-1.3,0.5-2.5,1.6-3.2c1-0.6,2.1-1.6,2.7-3.1c1.2-2.9,0.6-5.3,0.6-5.3           s2.9,0.8,4.5,2.8c0.2,0.2,0.3,0.4,0.5,0.6c2,2.1,2.7,5.1,1.8,7.8c-0.2,0.5-0.4,1-0.6,1.4c-1.4,2.3-3.3,3.1-3.3,3.1l3,8.1           l0,0l0,0l-9.7,2.5L102.8,117.2z" class="colorf3aca2 svgShape"></path>
    <path fill="#c5f593" d="M113.7,114.4c0-0.3-0.3-0.6-0.7-0.6c-1.1,0.1-2,0.1-2.6,0.2c-0.9,0.1-1.4,1-1.2,1.8c0,0,0,0,0,0       c0.2,0.6,0.7,0.1,2.8-0.5c0.3-0.1,0.8-0.2,1.1-0.3C113.5,115,113.7,114.7,113.7,114.4C113.7,114.4,113.7,114.4,113.7,114.4z" class="colorf59893 svgShape"></path>
    <g fill="#000000" class="color000000 svgShape">
      <path fill="#444674" d="M108.2,110.6c0-0.1,0.1-0.1,0.4-0.2c1-0.2,2-0.5,2.9-0.8c0.2-0.1,0.4-0.1,0.4,0c0,0.1-0.1,0.2-0.3,0.4           c-0.8,0.7-1.9,1-2.9,0.8C108.4,110.7,108.2,110.7,108.2,110.6z" class="color74444a svgShape"></path>
    </g>
    <g fill="#000000" class="color000000 svgShape">
      <path fill="#ffffff" d="M109.6,112.4c0,0,0.5,0.5,1.4,0.4s1-0.5,1.3-0.5c0.3,0-0.1-0.5-0.7-0.6       C110.1,111.4,109.6,112.4,109.6,112.4z" class="colorffffff svgShape"></path>
      <path fill="#1d1e30" d="M112.4,112.1L112.4,112.1c0.1,0,0.2-0.2,0.1-0.3c-0.2-0.2-0.7-0.4-1.4-0.3c-1.3,0.1-1.6,0.8-1.6,0.8l0.2,0       c0,0,0.5-0.5,1.2-0.7C111.6,111.5,112.4,112.1,112.4,112.1z" class="color2b1d30 svgShape"></path>
      <path fill="#1d1e30" d="M110.2,112.1c0,0.3,0.4,0.6,0.8,0.6c0.4,0,0.8-0.4,0.7-0.7c0-0.3-0.4-0.4-0.8-0.4       C110.6,111.6,110.2,111.8,110.2,112.1z" class="color2b1d30 svgShape"></path>
      <ellipse cx="111.4" cy="112" fill="#ffffff" rx=".1" ry=".2" transform="rotate(-4.974 111.397 112.036)" class="colorffffff svgShape"></ellipse>
    </g>
    <g fill="#000000" class="color000000 svgShape">
      <circle cx="111.8" cy="114.4" r=".1" fill="#7478cf" class="colorcf7492 svgShape"></circle>
      <circle cx="110.8" cy="114.4" r=".1" fill="#7478cf" class="colorcf7492 svgShape"></circle>
      <circle cx="111.1" cy="115.1" r=".1" fill="#7478cf" class="colorcf7492 svgShape"></circle>
      <circle cx="112.6" cy="115.4" r=".1" fill="#7478cf" class="colorcf7492 svgShape"></circle>
      <circle cx="111.7" cy="116.3" r=".1" fill="#7478cf" class="colorcf7492 svgShape"></circle>
      <circle cx="110.6" cy="116.9" r=".1" fill="#7478cf" class="colorcf7492 svgShape"></circle>
      <circle cx="110.2" cy="115.6" r=".1" fill="#7478cf" class="colorcf7492 svgShape"></circle>
    </g>
    <line x1="112.9" x2="114.1" y1="116.9" y2="116.6" fill="none" stroke="#a4ef55" stroke-linecap="round" stroke-linejoin="round" stroke-miterlimit="10" stroke-width=".323" class="colorStrokeef5655 svgStroke"></line>
    <g fill="#000000" class="color000000 svgShape">
      <path fill="#bdf384" d="M114.1,114.6L114.1,114.6C114.1,114.6,114.1,114.6,114.1,114.6c0.1-0.2,0.1-0.4,0.1-0.5      c0-0.1,0-0.3-0.1-0.4c0,0,0-0.1,0-0.1l0,0c0-0.2,0.3-0.3,0.4-0.2c0.2,0.2,0.2,0.4,0.3,0.6c0,0.2-0.1,0.5-0.2,0.7      C114.4,114.9,114.1,114.9,114.1,114.6z" class="colorf3848a svgShape"></path>
    </g>
    <g fill="#000000" class="color000000 svgShape">
      <polygon fill="#bae48f" points="156 144.2 160.7 138.4 158 129.1 149.6 136.8" class="colore4988f svgShape"></polygon>
      <path fill="#8cd243" d="M99.9,139.6c-1.3-12.2,14.6-17.9,21.4-7.7l0,0l13.6,17.1l17.5-16.3l7.9,10.7L147.2,167          c-2.2,4-6.8,6.2-11.3,5.3c-0.1,0-0.1,0-0.2,0l1.7,13.5l-7.2,5.7c-7.2,5.7-17,6.8-25.2,2.9h0c-2.9-1.4-4.7-4.3-4.7-7.5          C100.2,174.2,100.3,143,99.9,139.6z" class="colord2434a svgShape"></path>
      <path fill="none" stroke="#000225" stroke-linecap="round" stroke-linejoin="round" stroke-miterlimit="10" stroke-width=".646" d="M116.7,153.8l15.4,17.8c0.8,1.1,2.4,1.4,3.6,0.7l0,0" class="colorStroke000425 svgStroke"></path>
      <line x1="135" x2="135" y1="151.5" y2="149.2" fill="none" stroke="#000225" stroke-linecap="round" stroke-linejoin="round" stroke-miterlimit="10" stroke-width=".646" class="colorStroke000425 svgStroke"></line>
      <path fill="#ffffff" d="M165.7,125.5l-0.9,0.1l-3.4,0.4c-0.5,0.1-0.8,0.5-0.7,0.9l2.8,12.1c0.1,0.4,0.5,0.6,0.9,0.6l2.6-0.3        l0.4,0l4-0.5c0.4,0,0.7-0.4,0.7-0.8l-0.3-12.4c0-0.5-0.4-0.8-0.9-0.8L165.7,125.5z" class="colorffffff svgShape"></path>
      <path fill="none" stroke="#ffffff" stroke-miterlimit="10" stroke-width=".646" d="M161.5,127.8l-2.5,0.7c-0.7,0.2-1.2,0.8-1,1.3l2.3,8.1c0.2,0.5,0.8,0.8,1.6,0.6l2.2-0.6" class="colorStrokeffffff svgStroke"></path>
      <path fill="#ffffff" d="M166.6 114.4c-.4.6-1.5 1.6-.8 2.3.3.3.8.5 1.1 1 .5.9.6 2 0 2.9-.3.4-.8.6-.9 1-.3.9 0 1.8.4 2.7-.6-.8-1.1-2.1-.5-3.1.2-.3.6-.5.7-.8.5-.7.4-1.8 0-2.5-.2-.4-.6-.6-1-1C164.8 116.1 166 115 166.6 114.4L166.6 114.4zM163.6 119.6c-.3.3-.6.6-.7.9 0 .1 0 .1.1.2.2.1.5.2.7.4.5.4.5 1.2.1 1.7-.2.2-.5.3-.6.5-.3.4-.1 1 .2 1.4-.4-.4-.7-1-.4-1.6.2-.3.5-.4.6-.5.3-.3.3-1 0-1.3-.2-.2-.4-.2-.7-.4C162.3 120.4 163.2 119.8 163.6 119.6L163.6 119.6zM170 120.1c-.2.2-.5.5-.6.7 0 .1 0 .1.1.2.2.1.4.2.6.3.4.3.4 1 0 1.4-.2.2-.4.3-.5.4-.2.3-.1.8.1 1.1-.3-.3-.6-.8-.3-1.3.2-.3.4-.3.5-.4.2-.2.2-.7 0-1-.1-.1-.3-.2-.5-.4C168.9 120.8 169.6 120.3 170 120.1L170 120.1z" opacity=".57" class="colorffffff svgShape"></path>
      <g fill="#000000" class="color000000 svgShape">
        <path fill="#d0ff00" d="M148.4,136.7l9.5,10c0.6,0.6,1.5,0.6,2.2,0l2.3-2.2c0.6-0.6,0.6-1.5,0-2.2l-9.5-10       c-0.6-0.6-1.5-0.6-2.2,0l-2.3,2.2C147.9,135.1,147.8,136.1,148.4,136.7z" class="colorea3e2d svgShape"></path>
      </g>
      <path fill="#8cd243" d="M117.8,133.3c0.9-0.2,1.5-0.9,1.5-1.8l0.3-4.3l0,0c0.1-1-0.6-1.9-1.5-2.1c-2.9-0.7-9.6-1.3-18.3,3.1      c-0.1,0-0.2,0.1-0.2,0.1l-0.3,0.2c-0.8,0.6-1.1,1.6-0.7,2.5l0.2,0.4l2,4c0.4,0.8,1.3,1.3,2.2,1.1L117.8,133.3z" class="colord2434a svgShape"></path>
      <g fill="#000000" class="color000000 svgShape">
        <path fill="#cbf3a2" d="m159.2 136.2 2.6-.6c.4-.1.7.1.8.5l.2.8c.1.4-.1.7-.5.8l-2.6.6c-.4.1-.7-.1-.8-.5l-.2-.8C158.6 136.7 158.8 136.3 159.2 136.2zM158.5 134l2.6-.6c.4-.1.7.1.8.5l.2.8c.1.4-.1.7-.5.8l-2.6.6c-.4.1-.7-.1-.8-.5l-.2-.8C157.9 134.5 158.1 134.1 158.5 134zM157.9 131.9l2.6-.6c.4-.1.7.1.8.5l.2.8c.1.4-.1.7-.5.8l-2.6.6c-.4.1-.7-.1-.8-.5l-.2-.8C157.3 132.3 157.5 131.9 157.9 131.9zM157.8 129.5l2.6-.6c.4-.1.7.1.8.5l.2.8c.1.4-.1.7-.5.8l-2.6.6c-.4.1-.7-.1-.8-.5l-.2-.8C157.2 129.9 157.4 129.6 157.8 129.5z" class="colorf3aca2 svgShape"></path>
        <path fill="#80da22" d="M158.6 130c0-.2-.2-.2-.3-.2-.2.1-.6.2-.6.3-.2.2-.2.8.4.9.1 0 .4 0 .6 0 .1 0 .2-.2.2-.3L158.6 130zM158.8 132.5c0-.2-.2-.2-.3-.2-.2.1-.6.2-.6.3-.2.2-.2.8.4.9.1 0 .4 0 .6 0 .1 0 .2-.2.2-.3L158.8 132.5zM159.5 134.6c0-.2-.2-.2-.3-.2-.2.1-.6.2-.6.3-.2.2-.2.8.4.9.1 0 .4 0 .6 0 .1 0 .2-.2.2-.3L159.5 134.6zM160 136.9c0-.1-.2-.2-.3-.2-.2.1-.5.2-.6.3-.2.2-.2.7.4.8.1 0 .4 0 .5 0 .1 0 .2-.2.2-.3L160 136.9z" class="colorda2244 svgShape"></path>
      </g>
      <line x1="117.1" x2="115.7" y1="130.5" y2="125.5" fill="none" stroke="#000225" stroke-linecap="round" stroke-linejoin="round" stroke-miterlimit="10" stroke-width=".323" class="colorStroke000425 svgStroke"></line>
      <line x1="114.4" x2="112.9" y1="131.1" y2="126" fill="none" stroke="#000225" stroke-linecap="round" stroke-linejoin="round" stroke-miterlimit="10" stroke-width=".323" class="colorStroke000425 svgStroke"></line>
      <line x1="111.9" x2="110.4" y1="131.5" y2="126.4" fill="none" stroke="#000225" stroke-linecap="round" stroke-linejoin="round" stroke-miterlimit="10" stroke-width=".323" class="colorStroke000425 svgStroke"></line>
      <line x1="109.3" x2="107.8" y1="131.8" y2="126.7" fill="none" stroke="#000225" stroke-linecap="round" stroke-linejoin="round" stroke-miterlimit="10" stroke-width=".323" class="colorStroke000425 svgStroke"></line>
      <line x1="106.6" x2="105.1" y1="132.5" y2="127.4" fill="none" stroke="#000225" stroke-linecap="round" stroke-linejoin="round" stroke-miterlimit="10" stroke-width=".323" class="colorStroke000425 svgStroke"></line>
      <line x1="104" x2="102.6" y1="133.6" y2="128.5" fill="none" stroke="#000225" stroke-linecap="round" stroke-linejoin="round" stroke-miterlimit="10" stroke-width=".323" class="colorStroke000425 svgStroke"></line>
      <line x1="101.6" x2="100.1" y1="134.6" y2="129.5" fill="none" stroke="#000225" stroke-linecap="round" stroke-linejoin="round" stroke-miterlimit="10" stroke-width=".323" class="colorStroke000425 svgStroke"></line>
    </g>
  </g>
  <line x1="282.5" x2="21" y1="232.3" y2="232.3" fill="none" stroke="#000225" stroke-linecap="round" stroke-linejoin="round" stroke-miterlimit="10" stroke-width=".646" class="colorStroke000425 svgStroke"></line>
  <g fill="#000000" class="color000000 svgShape">
    <path fill="#6164a9" d="M192.7,178.7c0,0,16.3,7.5,16.7,18.7s-12.7,21-12.7,21s3.6,9.8-2.2,17.5c-3.6,4.8-15.7,11.5-22.1,10.7    c-6.4-0.8-6.4-0.8-6.4-0.8s-9.6,2.3-13,1.6c-4.4-0.9-6.8-2.8-6.8-2.8s-5.2,3.6-14.3,2.8s-13.5-4.4-13.5-4.4s-15.8,4.5-21.7-3.8    c-6.6-9.3,1.1-18,1.1-18s0.4-12.3,4.8-18.3s13.1-9.1,13.1-9.1s2-8.7,9.5-15.1c7.5-6.4,15.1-7.1,15.1-7.1s-3.6-6.7,9.5-14.5    c13.1-7.8,20.6,4.1,20.6,4.1s6.7-0.3,12.8,3.2C191.7,169.2,192.7,178.7,192.7,178.7z" class="color7761a9 svgShape"></path>
    <line x1="166.5" x2="170.6" y1="161" y2="161.3" fill="none" stroke="#8385bc" stroke-linecap="round" stroke-linejoin="round" stroke-miterlimit="10" stroke-width=".646" class="colorStroke9c83bc svgStroke"></line>
    <line x1="169.1" x2="166" y1="157.2" y2="158.9" fill="none" stroke="#8385bc" stroke-linecap="round" stroke-linejoin="round" stroke-miterlimit="10" stroke-width=".646" class="colorStroke9c83bc svgStroke"></line>
    <line x1="182.3" x2="183.6" y1="169.1" y2="173.7" fill="none" stroke="#8385bc" stroke-linecap="round" stroke-linejoin="round" stroke-miterlimit="10" stroke-width=".646" class="colorStroke9c83bc svgStroke"></line>
    <line x1="187.2" x2="184.3" y1="171.2" y2="168" fill="none" stroke="#8385bc" stroke-linecap="round" stroke-linejoin="round" stroke-miterlimit="10" stroke-width=".646" class="colorStroke9c83bc svgStroke"></line>
    <line x1="202.7" x2="207.5" y1="189.9" y2="189.9" fill="none" stroke="#8385bc" stroke-linecap="round" stroke-linejoin="round" stroke-miterlimit="10" stroke-width=".646" class="colorStroke9c83bc svgStroke"></line>
    <line x1="206" x2="202.2" y1="185.7" y2="187.8" fill="none" stroke="#8385bc" stroke-linecap="round" stroke-linejoin="round" stroke-miterlimit="10" stroke-width=".646" class="colorStroke9c83bc svgStroke"></line>
    <line x1="162.8" x2="167.5" y1="181.8" y2="181.8" fill="none" stroke="#8385bc" stroke-linecap="round" stroke-linejoin="round" stroke-miterlimit="10" stroke-width=".646" class="colorStroke9c83bc svgStroke"></line>
    <line x1="166.1" x2="162.3" y1="177.6" y2="179.6" fill="none" stroke="#8385bc" stroke-linecap="round" stroke-linejoin="round" stroke-miterlimit="10" stroke-width=".646" class="colorStroke9c83bc svgStroke"></line>
    <line x1="185.7" x2="184.3" y1="190.7" y2="195.2" fill="none" stroke="#8385bc" stroke-linecap="round" stroke-linejoin="round" stroke-miterlimit="10" stroke-width=".646" class="colorStroke9c83bc svgStroke"></line>
    <line x1="188.7" x2="187.9" y1="195.1" y2="190.9" fill="none" stroke="#8385bc" stroke-linecap="round" stroke-linejoin="round" stroke-miterlimit="10" stroke-width=".646" class="colorStroke9c83bc svgStroke"></line>
    <line x1="138.9" x2="143.7" y1="169.6" y2="169.6" fill="none" stroke="#8385bc" stroke-linecap="round" stroke-linejoin="round" stroke-miterlimit="10" stroke-width=".646" class="colorStroke9c83bc svgStroke"></line>
    <line x1="142.2" x2="138.4" y1="165.4" y2="167.5" fill="none" stroke="#8385bc" stroke-linecap="round" stroke-linejoin="round" stroke-miterlimit="10" stroke-width=".646" class="colorStroke9c83bc svgStroke"></line>
    <line x1="166.4" x2="171.2" y1="209" y2="209" fill="none" stroke="#8385bc" stroke-linecap="round" stroke-linejoin="round" stroke-miterlimit="10" stroke-width=".646" class="colorStroke9c83bc svgStroke"></line>
    <line x1="169.7" x2="165.9" y1="204.8" y2="206.9" fill="none" stroke="#8385bc" stroke-linecap="round" stroke-linejoin="round" stroke-miterlimit="10" stroke-width=".646" class="colorStroke9c83bc svgStroke"></line>
    <g fill="#000000" class="color000000 svgShape">
      <line x1="142.5" x2="139.8" y1="186.3" y2="190.2" fill="none" stroke="#8385bc" stroke-linecap="round" stroke-linejoin="round" stroke-miterlimit="10" stroke-width=".646" class="colorStroke9c83bc svgStroke"></line>
      <line x1="144.1" x2="144.6" y1="191.4" y2="187.1" fill="none" stroke="#8385bc" stroke-linecap="round" stroke-linejoin="round" stroke-miterlimit="10" stroke-width=".646" class="colorStroke9c83bc svgStroke"></line>
    </g>
    <g fill="#000000" class="color000000 svgShape">
      <line x1="186.6" x2="191.3" y1="226.2" y2="226.2" fill="none" stroke="#8385bc" stroke-linecap="round" stroke-linejoin="round" stroke-miterlimit="10" stroke-width=".646" class="colorStroke9c83bc svgStroke"></line>
      <line x1="189.9" x2="186.1" y1="222" y2="224.1" fill="none" stroke="#8385bc" stroke-linecap="round" stroke-linejoin="round" stroke-miterlimit="10" stroke-width=".646" class="colorStroke9c83bc svgStroke"></line>
    </g>
    <g fill="#000000" class="color000000 svgShape">
      <line x1="145.9" x2="145.5" y1="223.2" y2="218.4" fill="none" stroke="#8385bc" stroke-linecap="round" stroke-linejoin="round" stroke-miterlimit="10" stroke-width=".646" class="colorStroke9c83bc svgStroke"></line>
      <line x1="141.5" x2="143.8" y1="220.2" y2="223.8" fill="none" stroke="#8385bc" stroke-linecap="round" stroke-linejoin="round" stroke-miterlimit="10" stroke-width=".646" class="colorStroke9c83bc svgStroke"></line>
    </g>
    <g fill="#000000" class="color000000 svgShape">
      <line x1="122.9" x2="127.7" y1="233.2" y2="233.2" fill="none" stroke="#8385bc" stroke-linecap="round" stroke-linejoin="round" stroke-miterlimit="10" stroke-width=".646" class="colorStroke9c83bc svgStroke"></line>
      <line x1="126.2" x2="122.4" y1="229" y2="231.1" fill="none" stroke="#8385bc" stroke-linecap="round" stroke-linejoin="round" stroke-miterlimit="10" stroke-width=".646" class="colorStroke9c83bc svgStroke"></line>
    </g>
    <g fill="#000000" class="color000000 svgShape">
      <line x1="164" x2="165.4" y1="242" y2="246.5" fill="none" stroke="#8385bc" stroke-linecap="round" stroke-linejoin="round" stroke-miterlimit="10" stroke-width=".646" class="colorStroke9c83bc svgStroke"></line>
      <line x1="169" x2="165.9" y1="243.9" y2="240.9" fill="none" stroke="#8385bc" stroke-linecap="round" stroke-linejoin="round" stroke-miterlimit="10" stroke-width=".646" class="colorStroke9c83bc svgStroke"></line>
    </g>
    <g fill="#000000" class="color000000 svgShape">
      <line x1="97.3" x2="102" y1="216.6" y2="216.6" fill="none" stroke="#8385bc" stroke-linecap="round" stroke-linejoin="round" stroke-miterlimit="10" stroke-width=".646" class="colorStroke9c83bc svgStroke"></line>
      <line x1="100.6" x2="96.8" y1="212.4" y2="214.5" fill="none" stroke="#8385bc" stroke-linecap="round" stroke-linejoin="round" stroke-miterlimit="10" stroke-width=".646" class="colorStroke9c83bc svgStroke"></line>
    </g>
    <g fill="#000000" class="color000000 svgShape">
      <line x1="118.2" x2="119" y1="197.4" y2="192.7" fill="none" stroke="#8385bc" stroke-linecap="round" stroke-linejoin="round" stroke-miterlimit="10" stroke-width=".646" class="colorStroke9c83bc svgStroke"></line>
      <line x1="114.7" x2="116.1" y1="193.5" y2="197.5" fill="none" stroke="#8385bc" stroke-linecap="round" stroke-linejoin="round" stroke-miterlimit="10" stroke-width=".646" class="colorStroke9c83bc svgStroke"></line>
    </g>
  </g>
</svg>